<svg width="50" height="50" viewBox="0 0 50 50" fill="none" xmlns="http://www.w3.org/2000/svg">
<path d="M24.9579 49.9162C37.9761 49.9162 48.5295 39.3629 48.5295 26.3447C48.5295 13.3265 37.9761 2.77318 24.9579 2.77318C11.9398 2.77318 1.38644 13.3265 1.38644 26.3447C1.38644 39.3629 11.9398 49.9162 24.9579 49.9162Z" fill="#108948"/>
<path d="M24.9579 47.143C37.9761 47.143 48.5295 36.5897 48.5295 23.5715C48.5295 10.5534 37.9761 2.67029e-05 24.9579 2.67029e-05C11.9398 2.67029e-05 1.38644 10.5534 1.38644 23.5715C1.38644 36.5897 11.9398 47.143 24.9579 47.143Z" fill="#36F38D"/>
<path d="M24.9578 44.3699C35.6787 44.3699 44.3697 35.679 44.3697 24.9581C44.3697 14.2373 35.6787 5.54628 24.9578 5.54628C14.237 5.54628 5.54601 14.2373 5.54601 24.9581C5.54601 35.679 14.237 44.3699 24.9578 44.3699Z" fill="#BDFFDB"/>
<path d="M24.9578 42.9833C35.6787 42.9833 44.3697 34.2923 44.3697 23.5715C44.3697 12.8506 35.6787 4.15965 24.9578 4.15965C14.237 4.15965 5.54601 12.8506 5.54601 23.5715C5.54601 34.2923 14.237 42.9833 24.9578 42.9833Z" fill="#3DBE78"/>
<path d="M24.9574 11.5681C24.9574 11.5681 17.3937 15.133 16.6394 15.4546C15.8837 15.7749 16.1361 16.3018 16.6408 16.3018H33.2379C34.0172 16.3018 33.8328 15.707 33.2144 15.3853C32.5959 15.065 24.9574 11.5681 24.9574 11.5681Z" fill="#3DBE78"/>
<path d="M16.4694 34.5367C15.8537 34.5367 15.3326 34.311 14.906 33.8595C14.4795 33.408 14.2662 32.8563 14.2662 32.2046V14.9384C14.2662 14.2867 14.4795 13.7351 14.906 13.2836C15.3326 12.8321 15.8537 12.6063 16.4694 12.6063H32.7816C33.3972 12.6063 33.9183 12.8321 34.3449 13.2836C34.7715 13.7351 34.9847 14.2867 34.9847 14.9384V15.8314H26.2192C25.0116 15.8314 24.0377 16.223 23.2979 17.0063C22.558 17.7893 22.188 18.82 22.188 20.0985V27.0445C22.188 28.323 22.558 29.3537 23.2979 30.1367C24.0377 30.92 25.0116 31.3117 26.2192 31.3117H34.9847V32.2046C34.9847 32.8564 34.7714 33.408 34.3449 33.8595C33.9183 34.311 33.3972 34.5367 32.7816 34.5367H16.4694V34.5367ZM26.2192 29.3766C25.6036 29.3766 25.0825 29.1509 24.6559 28.6994C24.2293 28.2479 24.0161 27.6962 24.0161 27.0445V20.0984C24.0161 19.4468 24.2294 18.8952 24.6559 18.4437C25.0825 17.9921 25.6036 17.7664 26.2192 17.7664H34.0003C34.6159 17.7664 35.137 17.9922 35.5636 18.4437C35.9902 18.8952 36.2035 19.4468 36.2035 20.0984V27.0445C36.2035 27.6962 35.9902 28.2478 35.5636 28.6994C35.1371 29.1509 34.6159 29.3766 34.0003 29.3766H26.2192ZM29.5004 25.5066C30.0285 25.5066 30.4653 25.3238 30.8106 24.9583C31.1558 24.5929 31.3285 24.1305 31.3285 23.5715C31.3285 23.0126 31.1558 22.5502 30.8106 22.1847C30.4653 21.8193 30.0285 21.6365 29.5004 21.6365C28.9723 21.6365 28.5355 21.8193 28.1903 22.1847C27.845 22.5502 27.6723 23.0125 27.6723 23.5715C27.6723 24.1305 27.845 24.5928 28.1903 24.9583C28.5355 25.3238 28.9723 25.5066 29.5004 25.5066Z" fill="black" fill-opacity="0.1"/>
</svg>
