<svg
        xmlns="http://www.w3.org/2000/svg"
        viewBox="0 0 3400 420"
        width="3400"
        height="420"
>
    <defs>
        <linearGradient id="mainGrad" x1="0" y1="0" x2="0" y2="1">
            <stop offset="0%" stop-color="#7CFF9B"/>
            <stop offset="100%" stop-color="#1FAE3A"/>
        </linearGradient>

        <filter id="shadow" x="-30%" y="-30%" width="160%" height="160%">
            <feDropShadow
                    dx="0"
                    dy="12"
                    stdDeviation="20"
                    flood-color="#0b3d1a"
                    flood-opacity="0.55"
            />
        </filter>
    </defs>

    <g fill="url(#mainGrad)" filter="url(#shadow)">
        <!-- E -->
        <path d="M50 80 H280 V140 H130 V200 H260 V260 H130 V320 H280 V380 H50 Z"/>

        <!-- V -->
        <path d="M320 80 H420 L520 330 L620 80 H720 L560 380 H500 Z"/>

        <!-- I -->
        <rect x="760" y="80" width="90" height="300"/>

        <!-- D -->
        <path d="M900 80 H1080 C1240 80 1320 160 1320 230
             C1320 300 1240 380 1080 380 H900 Z
             M1000 150 V310 H1060
             C1150 310 1200 270 1200 230
             C1200 190 1150 150 1060 150 Z"/>

        <!-- A -->
        <path d="M1360 380 L1460 80 H1520 L1620 380 H1545 L1520 300 H1460 L1435 380 Z
             M1485 240 H1500 L1492 180 Z"/>

        <!-- C -->
        <path d="M1780 150 C1720 150 1680 200 1680 230
             C1680 270 1720 320 1780 320
             H1900 V380 H1760
             C1640 380 1560 300 1560 230
             C1560 160 1640 80 1760 80
             H1900 V140 Z"/>

        <!-- A -->
        <path d="M1920 380 L2020 80 H2080 L2180 380 H2105 L2080 300 H2020 L1995 380 Z
             M2045 240 H2060 L2052 180 Z"/>

        <!-- S -->
        <path d="M2220 140 H2360
             C2420 140 2460 170 2460 200
             C2460 235 2420 255 2360 265
             H2300
             C2250 275 2240 305 2240 325
             C2240 355 2270 380 2330 380
             H2460 V320 H2330
             C2300 320 2290 300 2290 290
             C2290 265 2315 255 2380 245
             H2440
             C2500 235 2540 200 2540 160
             C2540 110 2490 80 2360 80
             H2220 Z"/>

        <!-- I -->
        <rect x="2580" y="80" width="90" height="300"/>

        <!-- N -->
        <path d="M2720 380 V80 H2800 L2940 280 V80 H3020 V380 H2940 L2800 180 V380 Z"/>

        <!-- O -->
        <path d="M3180 80
             C3300 80 3380 160 3380 230
             C3380 300 3300 380 3180 380
             C3060 380 2980 300 2980 230
             C2980 160 3060 80 3180 80 Z
             M3180 150
             C3120 150 3080 190 3080 230
             C3080 270 3120 310 3180 310
             C3240 310 3280 270 3280 230
             C3280 190 3240 150 3180 150 Z"/>
    </g>
</svg>
